<svg xmlns="http://www.w3.org/2000/svg" id="EOH-logo-white" width="150" height="57.942" viewBox="0 0 150 57.942" xmlns:xlink="http://www.w3.org/1999/xlink">
 <path id="Path_52" d="M1370.259,174.473h-14.964V154.934h-16.814v19.51H1323.84V126.029h14.306v16.6h17.1V126.093h15.013Z" transform="translate(-1220.259 -117.528)" fill="#fff">
 </path>
 <path id="Path_53" d="M647.2,130.348a8.993,8.993,0,0,0-8.881-5.71c-4.188,0-7.141,1.756-8.6,5.518a22.029,22.029,0,0,0-.078,16.138c1.487,3.962,4.838,5.915,9.255,5.763,4.332-.149,7.54-2.459,8.629-6.563.622-2.348,2.009-9.993-.323-15.146M661.817,147c-3.118,11.958-13.6,17.117-27.046,15.78-16.608-1.654-21.505-14.145-20.843-26.73a31.785,31.785,0,0,1,1.313-7.205c2.625-8.952,10.206-14.675,19.96-15.064a43.84,43.84,0,0,1,9.217.3c11.362,1.988,17.765,9.618,18.5,21.635.052.855.007,1.714.007,2.571A51.675,51.675,0,0,1,661.817,147" transform="translate(-565.908 -105.04)" fill="#fff">
 </path>
 <path id="Path_54" d="M14.825,153.677v9.991H40.291v10.858H0V126.159H39.5v9.7H14.846V144H37.857v9.676Z" transform="translate(0 -117.648)" fill="#fff">
 </path>
 <path id="Path_55" d="M1097.81,596.277h14.239c-1.927-3.935-3.638-7.432-5.192-10.607-.038.044-.075.088-.113.131a21.778,21.778,0,0,1-8.933,10.476" transform="translate(-1010.784 -539.509)" fill="#fff">
 </path>
 <path id="Path_56" d="M560.857,590.524l-5.01,10.295h14.071a21.872,21.872,0,0,1-9.061-10.295" transform="translate(-511.782 -543.961)" fill="#fff">
 </path>
 <path id="Path_57" d="M881.363,6.974,877.8,0l-3.334,6.948a59.2,59.2,0,0,1,6.9.026" transform="translate(-804.99)" fill="#fff">
 </path>
</svg>